PathFileType	4	(X/Y/Z)	example_trial.trc
DataRate	CameraRate	NumFrames	NumMarkers	Units	OrigDataRate	OrigDataStartFrame	OrigNumFrames
100	100	5	20	mm	100	2032	2322
Frame#	Time	Can1			Can2			Can3			ElbowLE			ElbowME			Elbow3			Elbow4			Elbow5			Elbow6			ForearmRS			ForearmUL			Forearm3			Forearm4			HandRS			HandUL			Hand3			Hand4			Hand5			Hand6			Hand7			
		X1	Y1	Z1	X2	Y2	Z2	X3	Y3	Z3	X4	Y4	Z4	X5	Y5	Z5	X6	Y6	Z6	X7	Y7	Z7	X8	Y8	Z8	X9	Y9	Z9	X10	Y10	Z10	X11	Y11	Z11	X12	Y12	Z12	X13	Y13	Z13	X14	Y14	Z14	X15	Y15	Z15	X16	Y16	Z16	X17	Y17	Z17	X18	Y18	Z18	X19	Y19	Z19	X20	Y20	Z20	

2032	20.31	476.74146993283296	81.89788541976895	55.25719375880199	454.66222817079444	92.51806085340218	61.45248084228876	472.71915082559	46.92287446414737	59.06538719642229	-0.16297218922903323	-69.59492889115052	0.27419201696485623	-0.45145399849031165	90.55229201579718	0.7003353642023012	100.91928747356063	-34.41658340386839	-24.17816970377991	98.63369066356239	33.00899087121075	-26.18475601866536	97.4585042101263	34.49121134841999	30.413663501123985	99.08471695630237	-33.073447128201956	31.554644744456446	191.11527540917143	1.0923328686178735	52.22429220228985	194.12190215603852	-0.2959390651425551	-45.46693325455019	123.64775906648282	-34.363919856366905	-23.256073633616424	121.80384613443398	32.79465139313896	-25.464566783823873	329.0367570037705	3.0586568556084224	38.85436687967963	326.94374489198805	0.3458636369697139	-30.823129788116802	413.44692077406006	-27.984603914727877	-22.224418511726086	447.6988992935303	-19.974659499782458	-25.267115433319226	436.0149953465432	-23.804783176590618	9.536875656474692	449.17395525050375	-19.08892345506478	33.10229873265044	415.4928697570208	-24.403929607484976	30.889772398014763	
2033	20.32	476.8074253516813	81.8798546769916	54.758998555347574	454.7444593928517	92.50837874407485	60.986444518546385	472.7854416145119	46.90536779501233	58.56923923260421	-0.17085642697461	-69.62441318247781	0.2998301670832299	-0.6786915847491874	90.30481963632849	-0.39585719645813155	100.88013811284196	-34.42079420913617	-24.26454713122265	98.60386299662463	33.010838243343926	-26.293656838843685	97.48663497765828	34.48468973863726	30.303515011218714	99.11217856525664	-33.07920352395159	31.45942612390129	191.15844910213383	1.0804318739771333	52.024425244673445	193.76805596747283	-0.7929529625419676	-45.640383089608065	123.60804151128588	-34.376595514047686	-23.373717093703824	121.76262800455928	32.795317396841135	-25.584806588891375	329.0593632454606	3.0615862461498295	38.49951793778092	327.9887654587189	0.8053063568256142	-30.854461321253517	413.4086523237774	-27.99099616104204	-22.653071264053956	447.69801827042386	-20.36784761265926	-25.49877371571624	436.01619258883323	-23.792401050682038	9.080979836337967	448.9284207845529	-19.128474022821404	32.4572505956622	415.51320651095944	-24.418253955338866	30.467163996248935	
2034	20.33	476.8284899969617	81.88259879252816	54.29449353640096	454.762082038926	92.50616390450134	60.533766373239175	472.8233064428226	46.90659116155156	58.1071668541389	-0.09141193229056732	-69.14771574410489	0.004441661123920748	-0.31985383454488225	90.59134423778869	0.674943451222104	100.83527249284694	-34.43603930670489	-24.39229461457314	98.56609099890264	33.00725531863875	-26.41329443453285	97.51846495155485	34.48113448584253	30.206702727747697	99.14175799574434	-33.08851046219932	31.347638069469017	191.20831969360475	1.0796236381048931	51.81689748008428	194.08407408620073	-0.24844070272309082	-45.878181690982565	123.57074475365077	-34.37305698661642	-23.512791334278297	121.7374610134642	32.79033313984493	-25.711607553771394	329.09801391111336	3.038112458143818	38.17647159160322	327.81260198811094	1.648825762349169	-31.56142831845543	413.40543102218805	-27.98698621743702	-23.050915775464716	447.7593618440173	-20.208042522175074	-26.093251492086424	436.02620229695964	-23.794915041758802	8.628651746179735	449.2112499367246	-18.990884721173973	32.02370064313269	415.53181537994664	-24.440646508774112	30.0432236163959	
2035	20.34	476.8921484856543	81.85410987699353	53.835812541620825	454.82122485635	92.49839309387619	60.10396439129959	472.87648995908404	46.89867240656521	57.658355705223336	-0.16851788834778159	-69.59301047363755	0.29231722385252845	-1.0813910902608725	90.34563955835809	0.3399308072356685	100.81211121993361	-34.42066580240007	-24.47854381843118	98.53287404968378	33.0284941040219	-26.478020952388498	97.53668604904928	34.47963790820431	30.111327553228225	99.17297130435367	-33.075362040220035	31.266199902864674	191.25860609068442	1.0773974486459021	51.636613650110135	193.66909631842074	-0.8005361465457224	-46.03919484756129	123.54879783677835	-34.393657539956834	-23.623928305223203	121.6950651973786	32.810683652325714	-25.80145728105358	329.12822857299705	3.0423514954251196	37.852004573127566	327.52556165287956	0.9338321594902723	-31.545144263503133	413.36796540915543	-27.997496743487584	-23.455527085679783	447.60715074059635	-19.98013810515058	-26.623146227785803	436.0283874083452	-23.813485186186526	8.213753498208384	449.1965812181912	-18.981340494468046	31.55668917813898	415.56345790378145	-24.44178491605434	29.644871300213993	
2036	20.35	476.9454755179695	81.85821773380977	53.39774274724919	454.8882081851581	92.48108848042605	59.670663211764584	472.9371524509447	46.89548124882859	57.218165305476816	-0.16772030425104223	-69.59731107953839	0.2908801699140456	-1.254338060114887	90.27316243395451	0.12374557145456411	100.79421651251336	-34.4144372804701	-24.583266252908487	98.50898233428524	33.012122131952445	-26.590751169140784	97.55773223313304	34.49192009945411	30.01862253521088	99.19747568259837	-33.07021198242822	31.159494931437354	191.30113254608042	1.0895074574190122	51.46339120275826	193.91755741823522	-0.3003194032186478	-46.26493109230857	123.5325074746513	-34.369279583583385	-23.754135626897988	121.66698794357517	32.81711407162322	-25.935767808766343	329.1576123406737	3.044553961715799	37.553709803674366	328.2844231492328	2.015046228974853	-32.067401560316426	413.3316579937551	-27.975640429937094	-23.86596972042326	447.58546910984717	-19.98677557573732	-27.033552690682146	436.0291415201995	-23.797718903824872	7.8142881560817585	449.29077361267747	-18.972101102364608	31.14924840458196	415.58910988512014	-24.43825548614223	29.258718549099903	
